<svg width="52" height="52" viewBox="0 0 52 52" fill="none" xmlns="http://www.w3.org/2000/svg">
<g id="Layer_1" clip-path="url(#clip0_1871_564)">
<circle id="Ellipse 1" cx="26" cy="26" r="23.8333" fill="white"/>
<path id="Vector" d="M19.7503 20.6407C20.8231 18.3135 20.164 15.7222 18.2781 14.8528C16.3922 13.9834 13.9937 15.1651 12.9208 17.4922C11.848 19.8194 12.5071 22.4107 14.393 23.2802C16.2789 24.1496 18.6775 22.9678 19.7503 20.6407Z" fill="#0D0E18"/>
<path id="Vector_2" d="M23.3773 28.2461C24.3281 26.1837 23.3373 23.6995 21.1641 22.6977C18.991 21.6959 16.4586 22.5557 15.5077 24.6182C14.5569 26.6807 15.5478 29.1648 17.7209 30.1666C19.894 31.1684 22.4265 30.3086 23.3773 28.2461Z" fill="#0D0E18"/>
<path id="Vector_3" d="M33.2416 8.58607H21.6617C20.1261 8.58607 18.8822 9.83001 18.8822 11.3656V22.1633C17.9785 20.8906 16.4584 20.4156 15.4707 21.105C14.4787 21.7987 14.4058 23.405 15.3072 24.6931C16.2087 25.9835 17.7421 27.5721 18.7341 26.8783C18.7872 26.8408 18.8358 26.801 18.8822 26.759C18.8822 30.7162 22.0903 33.9221 26.0453 33.9221H28.8558C32.8129 33.9221 36.0189 30.714 36.0189 26.759V11.3634C36.0189 9.8278 34.7749 8.58386 33.2393 8.58386L33.2416 8.58607Z" fill="white"/>
<path id="Vector_4" d="M28.8557 34.4745H26.0453C22.066 34.4745 18.7805 31.4475 18.3718 27.5743C17.6427 27.6516 16.4363 27.2738 14.8521 25.0069C14.3461 24.2844 14.0898 23.4448 14.1252 22.6472C14.1649 21.7943 14.5295 21.0851 15.1526 20.6498C16.0695 20.0091 17.3046 20.1217 18.3276 20.8376V11.3634C18.3276 9.52731 19.8212 8.03149 21.6595 8.03149H33.2393C35.0754 8.03149 36.5712 9.5251 36.5712 11.3634V26.759C36.5712 31.0145 33.109 34.4745 28.8557 34.4745ZM18.8822 26.2066C18.9595 26.2066 19.0368 26.2221 19.1097 26.2552C19.3086 26.3436 19.4345 26.5425 19.4345 26.759C19.4345 30.4046 22.3997 33.3698 26.0453 33.3698H28.8557C32.5014 33.3698 35.4665 30.4046 35.4665 26.759V11.3634C35.4665 10.1349 34.4678 9.13623 33.2393 9.13623H21.6595C20.431 9.13623 19.4323 10.1349 19.4323 11.3634V22.1611C19.4323 22.4019 19.2777 22.614 19.0479 22.6869C18.8203 22.7599 18.5684 22.6759 18.4292 22.4793C17.7045 21.4563 16.518 21.0409 15.7845 21.5535C15.4486 21.7877 15.252 22.1942 15.2277 22.6958C15.2012 23.2526 15.389 23.8491 15.7558 24.3728C16.7832 25.8443 17.952 26.7435 18.4138 26.421C18.4491 26.3967 18.48 26.3679 18.5132 26.3392C18.617 26.2486 18.7474 26.2022 18.8778 26.2022L18.8822 26.2066Z" fill="#0D0E18"/>
<path id="Vector_5" d="M23.8835 16.1359C26.504 13.5154 27.0933 9.85606 25.1997 7.96247C23.3061 6.06888 19.6467 6.65814 17.0262 9.27863C14.4057 11.8991 13.8164 15.5585 15.71 17.4521C17.6036 19.3457 21.263 18.7564 23.8835 16.1359Z" fill="#0D0E18"/>
<path id="Vector_6" d="M36.9671 14.0918C38.1503 12.0423 36.3596 8.79324 32.9673 6.83473C29.5751 4.87621 25.8659 4.94992 24.6826 6.99936C23.4994 9.0488 25.2902 12.2979 28.6824 14.2564C32.0747 16.2149 35.7838 16.1412 36.9671 14.0918Z" fill="#0D0E18"/>
<path id="Vector_7" d="M35.0931 26.5159C32.5699 26.5159 30.5173 24.4633 30.5173 21.9401C30.5173 19.4169 32.5699 17.3643 35.0931 17.3643C37.6163 17.3643 39.6689 19.4169 39.6689 21.9401C39.6689 24.4633 37.6163 26.5159 35.0931 26.5159ZM35.0931 18.469C33.1797 18.469 31.622 20.0267 31.622 21.9401C31.622 23.8535 33.1797 25.4112 35.0931 25.4112C37.0065 25.4112 38.5642 23.8535 38.5642 21.9401C38.5642 20.0267 37.0065 18.469 35.0931 18.469Z" fill="#0D0E18"/>
<path id="Vector_8" d="M38.2124 18.6716C39.4215 17.9382 39.6839 16.1604 38.7985 14.7008C37.9131 13.2412 36.2152 12.6525 35.0061 13.386C33.797 14.1194 33.5346 15.8972 34.42 17.3568C35.3054 18.8164 37.0033 19.405 38.2124 18.6716Z" fill="#0D0E18"/>
<path id="Vector_9" d="M31.6397 21.4341H30.5349C30.5349 21.1381 30.3007 20.8972 30.0157 20.8972C29.7307 20.8972 29.4965 21.1381 29.4965 21.4341H28.3918C28.3918 20.5282 29.1209 19.7925 30.0157 19.7925C30.9106 19.7925 31.6397 20.5282 31.6397 21.4341Z" fill="#0D0E18"/>
<path id="Vector_10" d="M29.4081 29.9141C27.5301 29.9141 26.2773 29.238 26.2 29.1938L26.6264 28.4204C26.728 28.4757 29.1584 29.7704 32.3136 28.4138L32.6627 29.2247C31.4651 29.7395 30.356 29.9118 29.4081 29.9118V29.9141Z" fill="#0D0E18"/>
<path id="Vector_11" d="M31.5844 17.161C31.4143 17.161 31.2508 17.0616 31.1779 16.8937C31.0807 16.6705 31.1845 16.4098 31.4099 16.3126C33.3211 15.4907 34.8103 16.1402 34.8744 16.1668C35.0975 16.2662 35.1969 16.5291 35.0953 16.7501C34.9959 16.971 34.7352 17.0726 34.5142 16.9732C34.4612 16.9511 33.2968 16.4606 31.7612 17.1235C31.7038 17.1478 31.6441 17.1588 31.5867 17.1588L31.5844 17.161Z" fill="#0D0E18"/>
<path id="Vector_12" d="M26.8385 17.3112C26.7678 17.3112 26.6949 17.2935 26.6264 17.2582C26.5712 17.2295 25.4532 16.6484 23.869 17.1809C23.637 17.2582 23.3873 17.1345 23.31 16.9025C23.2326 16.6705 23.3564 16.4208 23.5884 16.3435C25.5614 15.6806 26.9932 16.4495 27.0528 16.4827C27.2671 16.5998 27.3445 16.8693 27.2274 17.0836C27.1478 17.2295 26.9954 17.3112 26.8407 17.3112H26.8385Z" fill="#0D0E18"/>
<path id="Vector_13" d="M13.5551 45.0578L12.7177 44.7728C12.7376 44.7109 14.8366 38.7453 21.116 37.8991C21.3745 37.3821 22.0682 35.6454 21.6109 32.6295L22.4858 32.4969C23.0934 36.5138 21.8164 38.4758 21.7611 38.5575L21.6462 38.7277L21.443 38.7498C15.5547 39.417 13.575 45.0026 13.5551 45.0578Z" fill="#0D0E18"/>
<path id="Vector_14" d="M39.6667 45.0578C39.6468 45.0026 37.6671 39.4149 31.7789 38.7498L31.6552 38.7365L31.5579 38.6614C31.4165 38.5509 30.1903 37.4727 30.8023 33.4404L31.6772 33.573C31.2331 36.5072 31.8363 37.6097 32.0462 37.8947C38.372 38.71 40.4842 44.7154 40.5063 44.7772L39.6689 45.0623L40.0865 44.9209L39.6689 45.0645L39.6667 45.0578Z" fill="#0D0E18"/>
<path id="Vector_15" d="M26.496 42.053C22.0793 42.053 19.039 39.1895 18.9949 39.1453L19.4544 38.6681C19.4699 38.6835 21.0939 40.2258 23.637 40.9858C27.0241 41.9978 30.367 41.2112 33.5686 38.6482L33.9839 39.1652C31.2795 41.3305 28.7143 42.053 26.496 42.053Z" fill="#0D0E18"/>
<path id="Vector_16" d="M24.9472 26.5159C22.424 26.5159 20.3714 24.4633 20.3714 21.9401C20.3714 19.4169 22.424 17.3643 24.9472 17.3643C27.4704 17.3643 29.523 19.4169 29.523 21.9401C29.523 24.4633 27.4704 26.5159 24.9472 26.5159ZM24.9472 18.469C23.0338 18.469 21.4761 20.0267 21.4761 21.9401C21.4761 23.8535 23.0338 25.4112 24.9472 25.4112C26.8606 25.4112 28.4183 23.8535 28.4183 21.9401C28.4183 20.0267 26.8606 18.469 24.9472 18.469Z" fill="#0D0E18"/>
<path id="Vector_17" d="M20.7934 22.7886H18.8822C18.5773 22.7886 18.3298 22.5411 18.3298 22.2362C18.3298 21.9313 18.5773 21.6838 18.8822 21.6838H20.7934C21.0983 21.6838 21.3457 21.9313 21.3457 22.2362C21.3457 22.5411 21.0983 22.7886 20.7934 22.7886Z" fill="#0D0E18"/>
<path id="Vector_18" d="M26.3723 23.8248C26.7896 23.8248 27.1279 23.168 27.1279 22.3577C27.1279 21.5475 26.7896 20.8906 26.3723 20.8906C25.955 20.8906 25.6167 21.5475 25.6167 22.3577C25.6167 23.168 25.955 23.8248 26.3723 23.8248Z" fill="#0D0E18"/>
<path id="Vector_19" d="M33.1377 23.5133C33.555 23.5133 33.8933 22.8564 33.8933 22.0462C33.8933 21.2359 33.555 20.5791 33.1377 20.5791C32.7204 20.5791 32.3821 21.2359 32.3821 22.0462C32.3821 22.8564 32.7204 23.5133 33.1377 23.5133Z" fill="#0D0E18"/>
<path id="Vector_20" d="M30.093 27.1346L29.9273 26.2663C30.9503 26.0718 31.0122 25.7338 31.242 24.4766C31.2619 24.3617 31.284 24.2446 31.3083 24.1187L32.1766 24.2844C32.1523 24.4059 32.1324 24.523 32.1103 24.6357C31.8783 25.9061 31.7082 26.8253 30.0908 27.1346H30.093Z" fill="#0D0E18"/>
<path id="Vector_21" d="M17.5189 22.7908C17.3333 22.0484 16.5711 22.0948 16.5379 22.097L16.507 21.6573C16.9069 21.6264 17.7266 21.8053 17.9476 22.6847L17.5189 22.7908Z" fill="#0D0E18"/>
<path id="Vector_22" d="M20.7271 40.1594L20.1504 39.8324C20.7735 38.7387 21.4474 37.4793 21.4982 37.2672L22.1478 37.3998C22.0727 37.7732 21.0408 39.6093 20.7249 40.1616L20.7271 40.1594Z" fill="#0D0E18"/>
<path id="Vector_23" d="M32.0504 38.0681L31.6044 38.5585L32.886 39.7238L33.332 39.2334L32.0504 38.0681Z" fill="#0D0E18"/>
<path id="Vector_24" d="M12.3223 45.6235C12.3223 45.6235 14.2423 42.1082 15.7072 41.0366C17.172 39.965 19.2247 38.9067 19.2247 38.9067C19.2247 38.9067 21.5645 41.589 26.7059 41.9469L29.8942 41.2311L31.9446 40.3517L33.7343 39.2447L33.6702 38.6261L35.5902 39.6999L37.3468 41.0985L38.8426 42.791L39.5253 44.2227L39.786 45.1993L35.7515 47.9655L29.8611 50.0159L18.2768 49.1697L12.3223 45.6235Z" fill="#0D0E18"/>
<path id="Vector_25" d="M25.9989 52C11.6638 52 0 40.3362 0 25.9989C0 11.6616 11.6638 0 25.9989 0C40.334 0 51.9978 11.6638 51.9978 25.9989C51.9978 40.334 40.334 51.9978 25.9989 51.9978V52ZM25.9989 2.65137C13.1243 2.65137 2.65137 13.1243 2.65137 25.9989C2.65137 38.8735 13.1243 49.3464 25.9989 49.3464C38.8735 49.3464 49.3464 38.8735 49.3464 25.9989C49.3464 13.1243 38.8735 2.65137 25.9989 2.65137Z" fill="#2D72F5"/>
</g>
<defs>
<clipPath id="clip0_1871_564">
<rect width="52" height="52" fill="white"/>
</clipPath>
</defs>
</svg>
